<svg width="200" height="200" viewBox="0 0 200 200" fill="none" xmlns="http://www.w3.org/2000/svg">
<path d="M102.449 56.26C102.449 36.233 118.682 20 138.708 20C158.735 20 174.97 36.232 174.97 56.26C174.97 76.285 158.736 92.522 138.708 92.522C118.682 92.522 102.449 76.286 102.449 56.26Z" fill="#24C8FE"/>
<path d="M42.092 179.51H130.143C141.237 179.481 150.222 170.485 150.222 159.385V68.2042C150.222 57.0892 141.211 48.0752 130.094 48.0752H42.139C31.024 48.0752 22.014 57.0892 22.014 68.2042V159.386C22.014 170.486 30.996 179.482 42.094 179.511L42.092 179.51Z" fill="url(#paint0_linear_2864_119)"/>
<path d="M42.127 179.514H130.084C141.199 179.514 150.211 170.504 150.211 159.389V144.448C131.634 141.374 109.35 139.585 85.387 139.585C62.041 139.585 40.286 141.284 22 144.214V159.39C22 170.504 31.012 179.514 42.127 179.514Z" fill="url(#paint1_linear_2864_119)"/>
<path d="M138.655 92.5222H138.889C142.843 92.5022 146.647 91.8501 150.201 90.6611V68.2042C150.201 57.0892 141.193 48.0771 130.076 48.0771H103.366C102.769 50.6671 102.45 53.3621 102.439 56.1301V56.2612C102.439 76.2752 118.65 92.4991 138.657 92.5231L138.655 92.5222Z" fill="url(#paint2_linear_2864_119)"/>
<path d="M54.558 77.379C49.319 82.617 49.305 91.207 54.662 96.561L62.0611 103.963C61.4251 105.408 60.9301 106.901 60.5741 108.422C59.7101 112.111 59.671 115.961 60.45 119.672L46.0011 105.227C35.9191 95.145 35.816 78.8009 45.899 68.7129C55.982 58.6309 72.327 58.7359 82.409 68.8169L103.489 89.8929C104.698 91.1039 105.763 92.403 106.686 93.774C110.776 99.844 112.032 107.266 110.418 114.149C109.365 118.639 107.093 122.901 103.588 126.405C102.022 127.969 100.305 129.288 98.484 130.364L89.236 121.118C91.328 120.505 93.289 119.38 94.926 117.741C98.943 113.725 99.888 107.741 97.701 102.757C97.034 101.236 96.075 99.8099 94.823 98.5599L86.305 90.04L73.745 77.48C68.389 72.124 59.799 72.137 54.558 77.379ZM122.979 126.709L119.6 123.332L116.459 120.119C116.419 117.543 116.398 114.947 116.398 112.334C116.398 109.182 116.425 106.059 116.484 102.969C116.666 103.1 116.867 103.274 117.084 103.49L131.639 118.045C141.72 128.127 141.825 144.471 131.74 154.557C121.659 164.639 105.311 164.534 95.2331 154.453L74.153 133.379C72.944 132.166 71.876 130.867 70.955 129.498C66.865 123.426 65.61 116.006 67.222 109.123C68.273 104.631 70.548 100.371 74.053 96.865C75.618 95.301 77.333 93.9819 79.156 92.9059L88.403 102.152C86.313 102.765 84.351 103.892 82.715 105.531C78.699 109.547 77.75 115.529 79.94 120.515C80.608 122.036 81.565 123.466 82.817 124.714L91.335 133.232L103.896 145.793C109.252 151.147 117.841 151.137 123.084 145.897C128.322 140.653 128.334 132.064 122.979 126.709ZM61.485 143.295L50.711 154.066C46.249 158.529 39.554 151.836 44.017 147.373L54.792 136.598C59.256 132.135 65.948 138.832 61.485 143.295ZM49.065 132.385H37.717C31.405 132.385 31.405 122.916 37.717 122.916H49.065C55.378 122.916 55.378 132.385 49.065 132.385ZM66.165 160.43V149.08C66.165 142.768 75.632 142.768 75.632 149.08V160.43C75.632 166.739 66.165 166.739 66.165 160.43Z" fill="#24C8FE"/>
<path d="M139.506 28.9751C152.961 28.9751 165.669 37.0491 165.669 52.8421C165.669 60.6801 161.772 71.1561 150.881 71.1561C148.61 71.1561 145.961 70.7451 144.036 67.7401C140.995 70.2771 138.65 71.1561 135.715 71.1561C127.638 71.1561 124.341 64.5641 124.341 58.2891C124.341 51.1761 129.332 41.5741 138.651 41.5741C141.106 41.5741 144.401 41.9691 145.752 45.2071C146.825 42.3161 147.677 42.4301 149.597 42.4301C151.159 42.4301 153.177 42.5761 153.177 44.9921C153.177 46.7671 149.865 59.0231 149.865 62.0801C149.865 63.5881 150.318 64.4281 151.948 64.4281C157.514 64.4281 158.41 55.6861 158.41 53.3211C158.41 43.7251 151.773 36.1321 141.789 36.1321H137.65C129.254 36.1321 119.936 44.6751 119.752 54.4461C119.723 56.2601 119.51 56.7081 119.752 58.7121C121.366 72.2861 130.99 76.6031 140.361 76.6031C145.566 76.6031 149.572 74.6831 150.932 74.6831C153.027 74.6831 153.921 78.1801 153.921 78.9561C153.921 83.0261 141.202 83.5461 139.773 83.5461C123.835 83.5461 111.742 72.8641 111.742 56.4211C111.741 40.6801 124.195 28.9751 139.506 28.9751Z" fill="#BDEEFF"/>
<path d="M152.565 67.6062C152.565 60.4772 158.342 54.7002 165.471 54.7002C172.599 54.7002 178.377 60.4772 178.377 67.6062C178.377 74.7352 172.599 80.5122 165.471 80.5122C158.344 80.5122 152.565 74.7352 152.565 67.6062Z" fill="#8A62CF"/>
<path d="M170.094 60.248L172.854 62.975L168.198 67.606L172.854 72.239L170.094 74.955L165.496 70.327L160.842 74.955L158.139 72.239L162.739 67.606L158.139 62.975L160.842 60.248L165.496 64.881L170.094 60.248Z" fill="#BDEEFF"/>
<path d="M139.347 48.1973C142.803 48.1973 143.778 51.2552 143.778 53.8052C143.778 57.2352 142.001 64.3232 136.303 64.3232C132.671 64.3232 132.031 60.2643 132.031 58.3433C132.031 55.1393 133.926 48.1973 139.347 48.1973Z" fill="#5586F2"/>
<defs>
<linearGradient id="paint0_linear_2864_119" x1="151.295" y1="112.708" x2="20.9318" y2="114.881" gradientUnits="userSpaceOnUse">
<stop stop-color="#8C63CF"/>
<stop offset="1" stop-color="#3647D3"/>
</linearGradient>
<linearGradient id="paint1_linear_2864_119" x1="23.7562" y1="164.731" x2="148.417" y2="156.28" gradientUnits="userSpaceOnUse">
<stop stop-color="#1B2BBB"/>
<stop offset="0.6138" stop-color="#0D6DD2"/>
<stop offset="0.9677" stop-color="#068FDE"/>
</linearGradient>
<linearGradient id="paint2_linear_2864_119" x1="101.637" y1="83.0218" x2="150.497" y2="56.4945" gradientUnits="userSpaceOnUse">
<stop stop-color="#3747D3"/>
<stop offset="1" stop-color="#71D0F6"/>
</linearGradient>
</defs>
</svg>
